<?xml version="1.0" encoding="UTF-8" standalone="yes"?>
<svg xmlns="http://www.w3.org/2000/svg" height="452" width="452">
<script type="text/ecmascript">
      <![CDATA[
        var shown = 1;
        function click() {
             var seq = document.getElementById("seq");
             if (shown==1) {
               seq.setAttribute("style", "visibility: hidden");
               shown = 0;
             } else {
               seq.setAttribute("style", "visibility: visible");
               shown = 1;
             }
         }
        ]]>
</script>
  <rect style="stroke: white; fill: white" height="452" x="0" y="0" width="452" onclick="click(evt)" />
  <g transform="scale(1.152792,1.152792) translate(177.707474,117.461548)">
    <polyline style="stroke: black; fill: none; stroke-width: 1.5" id="outline" points="
      119.528,-54.452
      115.814,-39.919
      112.100,-25.386
      108.386,-10.853
      104.672,3.680
      100.957,18.213
      97.243,32.746
      93.529,47.279
      85.969,60.234
      75.143,70.617
      64.318,81.000
      53.493,91.383
      42.667,101.767
      31.698,111.998
      20.589,122.077
      9.479,132.155
      -1.631,142.233
      -12.741,152.311
      -23.851,162.389
      -34.961,172.468
      -31.419,157.892
      -31.150,142.894
      -34.167,128.201
      -40.324,114.522
      -49.322,102.521
      -60.727,92.778
      -73.986,85.764
      -88.458,81.819
      -103.442,81.134
      -118.214,83.742
      -132.058,89.516
      -144.304,98.178
      -154.360,109.308
      -161.739,122.367
      -166.085,136.724
      -167.185,151.684
      -164.989,166.522
      -159.601,180.521
      -151.282,193.003
      -140.436,203.364
      -127.586,211.103
      -113.355,215.845
      -98.432,217.361
      -83.539,215.577
      -69.395,210.579
      -56.687,202.610
      -46.030,192.057
      -48.931,206.773
      -51.831,221.490
      -56.623,229.436
      -54.602,236.656
      -65.458,248.948
      -59.984,264.407
      -43.813,267.130
      -33.579,254.316
      -39.811,239.147
      -37.115,224.391
      -34.214,209.674
      -31.313,194.957
      -28.801,193.098
      -26.751,190.488
      -25.383,187.252
      -24.883,183.577
      -13.773,173.499
      -2.663,163.421
      8.447,153.343
      19.557,143.265
      30.667,133.186
      41.777,123.108
      48.946,120.914
      53.050,112.592
      63.876,102.209
      74.701,91.826
      85.527,81.443
      96.352,71.059
      95.650,86.043
      106.239,96.667
      121.224,96.016
      130.851,84.512
      128.850,69.646
      116.526,61.096
      131.351,58.812
      146.176,56.527
      161.001,54.242
      175.826,51.957
      190.907,58.399
      203.862,48.345
      201.364,32.137
      185.983,26.449
      173.541,37.132
      158.716,39.417
      143.891,41.702
      129.066,43.987
      114.241,46.271
      111.151,48.631
      108.062,50.993
      111.776,36.460
      115.490,21.927
      119.204,7.394
      122.919,-7.139
      126.633,-21.672
      130.347,-36.205
      134.061,-50.737
      148.871,-54.807
      159.651,-65.747
      163.501,-80.616
      159.385,-95.413
      148.410,-106.158
      133.530,-109.962
      118.746,-105.799
      108.035,-94.791
      104.278,-79.899
    " />
    <g style="stroke: black; stroke-width: 1; fill: none;" id="pairs">
      <line id="1,103" x1="119.52832" y1="-54.45168" x2="134.06120" y2="-50.73747" />
      <line id="2,102" x1="115.81413" y1="-39.91878" x2="130.34702" y2="-36.20459" />
      <line id="3,101" x1="112.09995" y1="-25.38589" x2="126.63284" y2="-21.67171" />
      <line id="4,100" x1="108.38576" y1="-10.85301" x2="122.91864" y2="-7.13882" />
      <line id="5,99" x1="104.67157" y1="3.67989" x2="119.20445" y2="7.39407" />
      <line id="6,98" x1="100.95737" y1="18.21277" x2="115.49026" y2="21.92696" />
      <line id="7,97" x1="97.24319" y1="32.74565" x2="111.77608" y2="36.45984" />
      <line id="8,96" x1="93.52900" y1="47.27854" x2="108.06189" y2="50.99273" />
      <line id="9,75" x1="85.96889" y1="60.23403" x2="96.35204" y2="71.05947" />
      <line id="10,74" x1="75.14345" y1="70.61718" x2="85.52660" y2="81.44262" />
      <line id="11,73" x1="64.31801" y1="81.00033" x2="74.70116" y2="91.82578" />
      <line id="12,72" x1="53.49257" y1="91.38348" x2="63.87571" y2="102.20892" />
      <line id="13,71" x1="42.66712" y1="101.76663" x2="53.05027" y2="112.59207" />
      <line id="14,69" x1="31.69840" y1="111.99831" x2="41.77661" y2="123.10819" />
      <line id="15,68" x1="20.58851" y1="122.07651" x2="30.66672" y2="133.18640" />
      <line id="16,67" x1="9.47862" y1="132.15472" x2="19.55683" y2="143.26462" />
      <line id="17,66" x1="-1.63127" y1="142.23294" x2="8.44694" y2="153.34282" />
      <line id="18,65" x1="-12.74116" y1="152.31114" x2="-2.66295" y2="163.42104" />
      <line id="19,64" x1="-23.85105" y1="162.38936" x2="-13.77284" y2="173.49925" />
      <line id="20,63" x1="-34.96094" y1="172.46758" x2="-24.88273" y2="183.57745" />
      <line id="47,59" x1="-46.02988" y1="192.05656" x2="-31.31304" y2="194.95735" />
      <line id="48,58" x1="-48.93067" y1="206.77341" x2="-34.21383" y2="209.67419" />
      <line id="49,57" x1="-51.83146" y1="221.49023" x2="-37.11462" y2="224.39102" />
      <line id="51,56" x1="-54.60234" y1="236.65620" x2="-39.81055" y2="239.14677" />
      <line id="81,94" x1="116.52591" y1="61.09629" x2="114.24120" y2="46.27131" />
      <line id="82,93" x1="131.35089" y1="58.81158" x2="129.06618" y2="43.98660" />
      <line id="83,92" x1="146.17587" y1="56.52686" x2="143.89116" y2="41.70188" />
      <line id="84,91" x1="161.00085" y1="54.24215" x2="158.71614" y2="39.41717" />
      <line id="85,90" x1="175.82584" y1="51.95744" x2="173.54112" y2="37.13245" />
    </g>
    <g style="font-family: SansSerif" transform="translate(-4.6, 4)" id="seq">
      <text x="119.528" y="-54.452">G</text>
      <text x="115.814" y="-39.919">G</text>
      <text x="112.100" y="-25.386">G</text>
      <text x="108.386" y="-10.853">C</text>
      <text x="104.672" y="3.680">G</text>
      <text x="100.957" y="18.213">A</text>
      <text x="97.243" y="32.746">C</text>
      <text x="93.529" y="47.279">C</text>
      <text x="85.969" y="60.234">C</text>
      <text x="75.143" y="70.617">U</text>
      <text x="64.318" y="81.000">G</text>
      <text x="53.493" y="91.383">A</text>
      <text x="42.667" y="101.767">U</text>
      <text x="31.698" y="111.998">G</text>
      <text x="20.589" y="122.077">A</text>
      <text x="9.479" y="132.155">G</text>
      <text x="-1.631" y="142.233">C</text>
      <text x="-12.741" y="152.311">U</text>
      <text x="-23.851" y="162.389">U</text>
      <text x="-34.961" y="172.468">G</text>
      <text x="-31.419" y="157.892">G</text>
      <text x="-31.150" y="142.894">U</text>
      <text x="-34.167" y="128.201">U</text>
      <text x="-40.324" y="114.522">U</text>
      <text x="-49.322" y="102.521">A</text>
      <text x="-60.727" y="92.778">G</text>
      <text x="-73.986" y="85.764">U</text>
      <text x="-88.458" y="81.819">A</text>
      <text x="-103.442" y="81.134">U</text>
      <text x="-118.214" y="83.742">U</text>
      <text x="-132.058" y="89.516">U</text>
      <text x="-144.304" y="98.178">A</text>
      <text x="-154.360" y="109.308">C</text>
      <text x="-161.739" y="122.367">A</text>
      <text x="-166.085" y="136.724">G</text>
      <text x="-167.185" y="151.684">C</text>
      <text x="-164.989" y="166.522">U</text>
      <text x="-159.601" y="180.521">C</text>
      <text x="-151.282" y="193.003">C</text>
      <text x="-140.436" y="203.364">A</text>
      <text x="-127.586" y="211.103">U</text>
      <text x="-113.355" y="215.845">A</text>
      <text x="-98.432" y="217.361">C</text>
      <text x="-83.539" y="215.577">A</text>
      <text x="-69.395" y="210.579">U</text>
      <text x="-56.687" y="202.610">G</text>
      <text x="-46.030" y="192.057">A</text>
      <text x="-48.931" y="206.773">G</text>
      <text x="-51.831" y="221.490">G</text>
      <text x="-56.623" y="229.436">U</text>
      <text x="-54.602" y="236.656">G</text>
      <text x="-65.458" y="248.948">U</text>
      <text x="-59.984" y="264.407">U</text>
      <text x="-43.813" y="267.130">A</text>
      <text x="-33.579" y="254.316">U</text>
      <text x="-39.811" y="239.147">C</text>
      <text x="-37.115" y="224.391">C</text>
      <text x="-34.214" y="209.674">C</text>
      <text x="-31.313" y="194.957">U</text>
      <text x="-28.801" y="193.098">A</text>
      <text x="-26.751" y="190.488">U</text>
      <text x="-25.383" y="187.252">G</text>
      <text x="-24.883" y="183.577">C</text>
      <text x="-13.773" y="173.499">A</text>
      <text x="-2.663" y="163.421">A</text>
      <text x="8.447" y="153.343">G</text>
      <text x="19.557" y="143.265">U</text>
      <text x="30.667" y="133.186">U</text>
      <text x="41.777" y="123.108">C</text>
      <text x="48.946" y="120.914">G</text>
      <text x="53.050" y="112.592">A</text>
      <text x="63.876" y="102.209">U</text>
      <text x="74.701" y="91.826">C</text>
      <text x="85.527" y="81.443">A</text>
      <text x="96.352" y="71.059">G</text>
      <text x="95.650" y="86.043">G</text>
      <text x="106.239" y="96.667">C</text>
      <text x="121.224" y="96.016">G</text>
      <text x="130.851" y="84.512">A</text>
      <text x="128.850" y="69.646">A</text>
      <text x="116.526" y="61.096">A</text>
      <text x="131.351" y="58.812">C</text>
      <text x="146.176" y="56.527">G</text>
      <text x="161.001" y="54.242">G</text>
      <text x="175.826" y="51.957">U</text>
      <text x="190.907" y="58.399">G</text>
      <text x="203.862" y="48.345">A</text>
      <text x="201.364" y="32.137">A</text>
      <text x="185.983" y="26.449">A</text>
      <text x="173.541" y="37.132">G</text>
      <text x="158.716" y="39.417">C</text>
      <text x="143.891" y="41.702">C</text>
      <text x="129.066" y="43.987">G</text>
      <text x="114.241" y="46.271">U</text>
      <text x="111.151" y="48.631">A</text>
      <text x="108.062" y="50.993">G</text>
      <text x="111.776" y="36.460">G</text>
      <text x="115.490" y="21.927">U</text>
      <text x="119.204" y="7.394">U</text>
      <text x="122.919" y="-7.139">G</text>
      <text x="126.633" y="-21.672">C</text>
      <text x="130.347" y="-36.205">C</text>
      <text x="134.061" y="-50.737">C</text>
      <text x="148.871" y="-54.807">A</text>
      <text x="159.651" y="-65.747">G</text>
      <text x="163.501" y="-80.616">A</text>
      <text x="159.385" y="-95.413">G</text>
      <text x="148.410" y="-106.158">A</text>
      <text x="133.530" y="-109.962">C</text>
      <text x="118.746" y="-105.799">A</text>
      <text x="108.035" y="-94.791">A</text>
      <text x="104.278" y="-79.899">U</text>
    </g>
  </g>
</svg>
