<?xml version="1.0" encoding="UTF-8" standalone="yes"?>
<svg xmlns="http://www.w3.org/2000/svg" height="452" width="452">
<script type="text/ecmascript">
      <![CDATA[
        var shown = 1;
        function click() {
             var seq = document.getElementById("seq");
             if (shown==1) {
               seq.setAttribute("style", "visibility: hidden");
               shown = 0;
             } else {
               seq.setAttribute("style", "visibility: visible");
               shown = 1;
             }
         }
        ]]>
</script>
  <rect style="stroke: white; fill: white" height="452" x="0" y="0" width="452" onclick="click(evt)" />
  <g transform="scale(0.952301,0.952301) translate(239.086990,200.010056)">
    <polyline style="stroke: black; fill: none; stroke-width: 1.5" id="outline" points="
      119.528,-137.000
      115.814,-122.467
      112.100,-107.934
      108.386,-93.402
      104.672,-78.869
      100.957,-64.336
      97.243,-49.803
      93.529,-35.270
      85.969,-22.314
      75.143,-11.931
      64.318,-1.548
      53.493,8.835
      42.667,19.218
      31.698,29.450
      20.589,39.528
      9.479,49.606
      -1.631,59.684
      -12.741,69.763
      -24.199,60.048
      -36.827,51.912
      -50.409,45.494
      -64.712,40.904
      -79.492,38.220
      -94.496,37.489
      -109.467,38.722
      -124.149,41.899
      -138.291,46.965
      -151.651,53.833
      -163.999,62.387
      -175.126,72.479
      -184.840,83.938
      -192.975,96.566
      -199.392,110.148
      -203.982,124.451
      -206.665,139.232
      -207.396,154.236
      -206.162,169.207
      -202.985,183.889
      -197.918,198.030
      -191.049,211.390
      -182.495,223.738
      -172.402,234.864
      -160.943,244.577
      -148.314,252.712
      -134.732,259.128
      -120.428,263.717
      -105.648,266.400
      -90.644,267.130
      -75.673,265.895
      -60.991,262.717
      -46.849,257.650
      -33.491,250.780
      -21.143,242.225
      -10.017,232.132
      -0.304,220.673
      7.830,208.044
      14.246,194.461
      18.834,180.157
      21.516,165.376
      22.245,150.372
      21.010,135.401
      17.831,120.720
      12.763,106.579
      5.892,93.220
      -2.663,80.873
      8.447,70.794
      19.557,60.716
      30.667,50.638
      41.777,40.560
      48.946,38.366
      53.050,30.044
      63.876,19.660
      74.701,9.277
      85.527,-1.106
      96.352,-11.489
      95.650,3.494
      106.239,14.119
      121.224,13.467
      130.851,1.963
      128.850,-12.903
      116.526,-21.452
      131.351,-23.737
      146.176,-26.022
      161.001,-28.306
      175.826,-30.591
      190.907,-24.149
      203.862,-34.204
      201.364,-50.412
      185.983,-56.099
      173.541,-45.416
      158.716,-43.131
      143.891,-40.847
      129.066,-38.562
      114.241,-36.277
      111.151,-33.917
      108.062,-31.556
      111.776,-46.089
      115.490,-60.622
      119.204,-75.154
      122.919,-89.687
      126.633,-104.220
      130.347,-118.753
      134.061,-133.286
      148.871,-137.355
      159.651,-148.296
      163.501,-163.165
      159.385,-177.962
      148.410,-188.707
      133.530,-192.510
      118.746,-188.348
      108.035,-177.340
      104.278,-162.448
    " />
    <g style="stroke: black; stroke-width: 1; fill: none;" id="pairs">
      <line id="1,103" x1="119.52832" y1="-137.00020" x2="134.06120" y2="-133.28600" />
      <line id="2,102" x1="115.81413" y1="-122.46730" x2="130.34702" y2="-118.75311" />
      <line id="3,101" x1="112.09995" y1="-107.93442" x2="126.63284" y2="-104.22023" />
      <line id="4,100" x1="108.38576" y1="-93.40154" x2="122.91864" y2="-89.68735" />
      <line id="5,99" x1="104.67157" y1="-78.86864" x2="119.20445" y2="-75.15445" />
      <line id="6,98" x1="100.95737" y1="-64.33575" x2="115.49026" y2="-60.62157" />
      <line id="7,97" x1="97.24319" y1="-49.80287" x2="111.77608" y2="-46.08868" />
      <line id="8,96" x1="93.52900" y1="-35.26998" x2="108.06189" y2="-31.55579" />
      <line id="9,75" x1="85.96889" y1="-22.31449" x2="96.35204" y2="-11.48905" />
      <line id="10,74" x1="75.14345" y1="-11.93134" x2="85.52660" y2="-1.10590" />
      <line id="11,73" x1="64.31801" y1="-1.54819" x2="74.70116" y2="9.27725" />
      <line id="12,72" x1="53.49257" y1="8.83496" x2="63.87571" y2="19.66040" />
      <line id="13,71" x1="42.66712" y1="19.21811" x2="53.05027" y2="30.04355" />
      <line id="14,69" x1="31.69840" y1="29.44978" x2="41.77661" y2="40.55967" />
      <line id="15,68" x1="20.58851" y1="39.52799" x2="30.66672" y2="50.63788" />
      <line id="16,67" x1="9.47862" y1="49.60620" x2="19.55683" y2="60.71609" />
      <line id="17,66" x1="-1.63127" y1="59.68441" x2="8.44694" y2="70.79430" />
      <line id="18,65" x1="-12.74116" y1="69.76263" x2="-2.66295" y2="80.87251" />
      <line id="81,94" x1="116.52591" y1="-21.45223" x2="114.24120" y2="-36.27721" />
      <line id="82,93" x1="131.35089" y1="-23.73695" x2="129.06618" y2="-38.56193" />
      <line id="83,92" x1="146.17587" y1="-26.02166" x2="143.89116" y2="-40.84664" />
      <line id="84,91" x1="161.00085" y1="-28.30637" x2="158.71614" y2="-43.13136" />
      <line id="85,90" x1="175.82584" y1="-30.59109" x2="173.54112" y2="-45.41607" />
    </g>
    <g style="font-family: SansSerif" transform="translate(-4.6, 4)" id="seq">
      <text x="119.528" y="-137.000">G</text>
      <text x="115.814" y="-122.467">G</text>
      <text x="112.100" y="-107.934">G</text>
      <text x="108.386" y="-93.402">C</text>
      <text x="104.672" y="-78.869">G</text>
      <text x="100.957" y="-64.336">A</text>
      <text x="97.243" y="-49.803">C</text>
      <text x="93.529" y="-35.270">C</text>
      <text x="85.969" y="-22.314">C</text>
      <text x="75.143" y="-11.931">U</text>
      <text x="64.318" y="-1.548">G</text>
      <text x="53.493" y="8.835">A</text>
      <text x="42.667" y="19.218">U</text>
      <text x="31.698" y="29.450">G</text>
      <text x="20.589" y="39.528">A</text>
      <text x="9.479" y="49.606">G</text>
      <text x="-1.631" y="59.684">C</text>
      <text x="-12.741" y="69.763">U</text>
      <text x="-24.199" y="60.048">U</text>
      <text x="-36.827" y="51.912">G</text>
      <text x="-50.409" y="45.494">G</text>
      <text x="-64.712" y="40.904">U</text>
      <text x="-79.492" y="38.220">U</text>
      <text x="-94.496" y="37.489">U</text>
      <text x="-109.467" y="38.722">A</text>
      <text x="-124.149" y="41.899">G</text>
      <text x="-138.291" y="46.965">U</text>
      <text x="-151.651" y="53.833">A</text>
      <text x="-163.999" y="62.387">U</text>
      <text x="-175.126" y="72.479">U</text>
      <text x="-184.840" y="83.938">U</text>
      <text x="-192.975" y="96.566">A</text>
      <text x="-199.392" y="110.148">C</text>
      <text x="-203.982" y="124.451">A</text>
      <text x="-206.665" y="139.232">G</text>
      <text x="-207.396" y="154.236">C</text>
      <text x="-206.162" y="169.207">U</text>
      <text x="-202.985" y="183.889">C</text>
      <text x="-197.918" y="198.030">C</text>
      <text x="-191.049" y="211.390">A</text>
      <text x="-182.495" y="223.738">U</text>
      <text x="-172.402" y="234.864">A</text>
      <text x="-160.943" y="244.577">C</text>
      <text x="-148.314" y="252.712">A</text>
      <text x="-134.732" y="259.128">U</text>
      <text x="-120.428" y="263.717">G</text>
      <text x="-105.648" y="266.400">A</text>
      <text x="-90.644" y="267.130">G</text>
      <text x="-75.673" y="265.895">G</text>
      <text x="-60.991" y="262.717">U</text>
      <text x="-46.849" y="257.650">G</text>
      <text x="-33.491" y="250.780">U</text>
      <text x="-21.143" y="242.225">U</text>
      <text x="-10.017" y="232.132">A</text>
      <text x="-0.304" y="220.673">U</text>
      <text x="7.830" y="208.044">C</text>
      <text x="14.246" y="194.461">C</text>
      <text x="18.834" y="180.157">C</text>
      <text x="21.516" y="165.376">U</text>
      <text x="22.245" y="150.372">A</text>
      <text x="21.010" y="135.401">U</text>
      <text x="17.831" y="120.720">G</text>
      <text x="12.763" y="106.579">C</text>
      <text x="5.892" y="93.220">A</text>
      <text x="-2.663" y="80.873">A</text>
      <text x="8.447" y="70.794">G</text>
      <text x="19.557" y="60.716">U</text>
      <text x="30.667" y="50.638">U</text>
      <text x="41.777" y="40.560">C</text>
      <text x="48.946" y="38.366">G</text>
      <text x="53.050" y="30.044">A</text>
      <text x="63.876" y="19.660">U</text>
      <text x="74.701" y="9.277">C</text>
      <text x="85.527" y="-1.106">A</text>
      <text x="96.352" y="-11.489">G</text>
      <text x="95.650" y="3.494">G</text>
      <text x="106.239" y="14.119">C</text>
      <text x="121.224" y="13.467">G</text>
      <text x="130.851" y="1.963">A</text>
      <text x="128.850" y="-12.903">A</text>
      <text x="116.526" y="-21.452">A</text>
      <text x="131.351" y="-23.737">C</text>
      <text x="146.176" y="-26.022">G</text>
      <text x="161.001" y="-28.306">G</text>
      <text x="175.826" y="-30.591">U</text>
      <text x="190.907" y="-24.149">G</text>
      <text x="203.862" y="-34.204">A</text>
      <text x="201.364" y="-50.412">A</text>
      <text x="185.983" y="-56.099">A</text>
      <text x="173.541" y="-45.416">G</text>
      <text x="158.716" y="-43.131">C</text>
      <text x="143.891" y="-40.847">C</text>
      <text x="129.066" y="-38.562">G</text>
      <text x="114.241" y="-36.277">U</text>
      <text x="111.151" y="-33.917">A</text>
      <text x="108.062" y="-31.556">G</text>
      <text x="111.776" y="-46.089">G</text>
      <text x="115.490" y="-60.622">U</text>
      <text x="119.204" y="-75.154">U</text>
      <text x="122.919" y="-89.687">G</text>
      <text x="126.633" y="-104.220">C</text>
      <text x="130.347" y="-118.753">C</text>
      <text x="134.061" y="-133.286">C</text>
      <text x="148.871" y="-137.355">A</text>
      <text x="159.651" y="-148.296">G</text>
      <text x="163.501" y="-163.165">A</text>
      <text x="159.385" y="-177.962">G</text>
      <text x="148.410" y="-188.707">A</text>
      <text x="133.530" y="-192.510">C</text>
      <text x="118.746" y="-188.348">A</text>
      <text x="108.035" y="-177.340">A</text>
      <text x="104.278" y="-162.448">U</text>
    </g>
  </g>
</svg>
