<?xml version="1.0" encoding="UTF-8" standalone="yes"?>
<svg xmlns="http://www.w3.org/2000/svg" height="452" width="452">
<script type="text/ecmascript">
      <![CDATA[
        var shown = 1;
        function click() {
             var seq = document.getElementById("seq");
             if (shown==1) {
               seq.setAttribute("style", "visibility: hidden");
               shown = 0;
             } else {
               seq.setAttribute("style", "visibility: visible");
               shown = 1;
             }
         }
        ]]>
</script>
  <rect style="stroke: white; fill: white" height="452" x="0" y="0" width="452" onclick="click(evt)" />
  <g transform="scale(1.090383,1.090383) translate(177.761246,139.903244)">
    <polyline style="stroke: black; fill: none; stroke-width: 1.5" id="outline" points="
      119.528,-76.893
      115.814,-62.360
      112.100,-47.828
      108.386,-33.295
      104.672,-18.762
      100.957,-4.229
      97.243,10.304
      93.529,24.837
      85.969,37.792
      75.143,48.175
      64.318,58.559
      53.493,68.942
      42.667,79.325
      31.698,89.557
      20.589,99.635
      9.479,109.713
      -1.631,119.791
      -12.741,129.869
      -26.539,135.754
      -41.503,136.796
      -56.466,137.837
      -61.407,135.406
      -66.280,135.232
      -70.206,136.886
      -72.617,139.641
      -87.442,141.925
      -102.267,144.210
      -113.906,133.767
      -129.536,133.299
      -141.778,143.029
      -144.851,158.362
      -137.304,172.058
      -122.701,177.650
      -107.936,172.498
      -99.982,159.035
      -85.157,156.750
      -70.332,154.466
      -55.425,152.801
      -40.461,151.759
      -25.497,150.718
      -36.806,160.572
      -45.502,172.794
      -51.103,186.709
      -53.301,201.547
      -51.974,216.488
      -47.194,230.706
      -39.227,243.416
      -28.513,253.914
      -15.644,261.620
      -1.331,266.108
      13.634,267.130
      28.424,264.630
      42.222,258.745
      54.264,249.802
      63.886,238.294
      70.554,224.858
      73.901,210.236
      73.741,195.237
      70.084,180.690
      63.131,167.398
      53.267,156.098
      41.037,147.413
      27.117,141.824
      12.277,139.639
      -2.663,140.979
      8.447,130.901
      19.557,120.823
      30.667,110.745
      41.777,100.666
      48.946,98.472
      53.050,90.150
      63.876,79.767
      74.701,69.384
      85.527,59.001
      96.352,48.618
      95.650,63.601
      106.239,74.226
      121.224,73.574
      130.851,62.070
      128.850,47.204
      116.526,38.655
      131.351,36.370
      146.176,34.085
      161.001,31.800
      175.826,29.516
      190.907,35.958
      203.862,25.903
      201.364,9.695
      185.983,4.007
      173.541,14.691
      158.716,16.975
      143.891,19.260
      129.066,21.545
      114.241,23.830
      111.151,26.189
      108.062,28.551
      111.776,14.018
      115.490,-0.515
      119.204,-15.048
      122.919,-29.581
      126.633,-44.113
      130.347,-58.646
      134.061,-73.179
      148.871,-77.249
      159.651,-88.189
      163.501,-103.058
      159.385,-117.855
      148.410,-128.600
      133.530,-132.403
      118.746,-128.241
      108.035,-117.233
      104.278,-102.341
    " />
    <g style="stroke: black; stroke-width: 1; fill: none;" id="pairs">
      <line id="1,103" x1="119.52832" y1="-76.89339" x2="134.06120" y2="-73.17918" />
      <line id="2,102" x1="115.81413" y1="-62.36049" x2="130.34702" y2="-58.64630" />
      <line id="3,101" x1="112.09995" y1="-47.82761" x2="126.63284" y2="-44.11342" />
      <line id="4,100" x1="108.38576" y1="-33.29472" x2="122.91864" y2="-29.58054" />
      <line id="5,99" x1="104.67157" y1="-18.76183" x2="119.20445" y2="-15.04764" />
      <line id="6,98" x1="100.95737" y1="-4.22894" x2="115.49026" y2="-0.51476" />
      <line id="7,97" x1="97.24319" y1="10.30394" x2="111.77608" y2="14.01813" />
      <line id="8,96" x1="93.52900" y1="24.83683" x2="108.06189" y2="28.55102" />
      <line id="9,75" x1="85.96889" y1="37.79232" x2="96.35204" y2="48.61776" />
      <line id="10,74" x1="75.14345" y1="48.17547" x2="85.52660" y2="59.00091" />
      <line id="11,73" x1="64.31801" y1="58.55862" x2="74.70116" y2="69.38406" />
      <line id="12,72" x1="53.49257" y1="68.94177" x2="63.87571" y2="79.76721" />
      <line id="13,71" x1="42.66712" y1="79.32492" x2="53.05027" y2="90.15036" />
      <line id="14,69" x1="31.69840" y1="89.55659" x2="41.77661" y2="100.66648" />
      <line id="15,68" x1="20.58851" y1="99.63480" x2="30.66672" y2="110.74469" />
      <line id="16,67" x1="9.47862" y1="109.71301" x2="19.55683" y2="120.82291" />
      <line id="17,66" x1="-1.63127" y1="119.79122" x2="8.44694" y2="130.90111" />
      <line id="18,65" x1="-12.74116" y1="129.86943" x2="-2.66295" y2="140.97932" />
      <line id="19,40" x1="-26.53876" y1="135.75386" x2="-25.49703" y2="150.71764" />
      <line id="20,39" x1="-41.50254" y1="136.79558" x2="-40.46082" y2="151.75937" />
      <line id="21,38" x1="-56.46632" y1="137.83730" x2="-55.42460" y2="152.80109" />
      <line id="25,37" x1="-72.61665" y1="139.64078" x2="-70.33194" y2="154.46576" />
      <line id="26,36" x1="-87.44164" y1="141.92548" x2="-85.15692" y2="156.75046" />
      <line id="27,35" x1="-102.26662" y1="144.21019" x2="-99.98190" y2="159.03519" />
      <line id="81,94" x1="116.52591" y1="38.65458" x2="114.24120" y2="23.82960" />
      <line id="82,93" x1="131.35089" y1="36.36987" x2="129.06618" y2="21.54488" />
      <line id="83,92" x1="146.17587" y1="34.08515" x2="143.89116" y2="19.26017" />
      <line id="84,91" x1="161.00085" y1="31.80044" x2="158.71614" y2="16.97546" />
      <line id="85,90" x1="175.82584" y1="29.51572" x2="173.54112" y2="14.69074" />
    </g>
    <g style="font-family: SansSerif" transform="translate(-4.6, 4)" id="seq">
      <text x="119.528" y="-76.893">G</text>
      <text x="115.814" y="-62.360">G</text>
      <text x="112.100" y="-47.828">G</text>
      <text x="108.386" y="-33.295">C</text>
      <text x="104.672" y="-18.762">G</text>
      <text x="100.957" y="-4.229">A</text>
      <text x="97.243" y="10.304">C</text>
      <text x="93.529" y="24.837">C</text>
      <text x="85.969" y="37.792">C</text>
      <text x="75.143" y="48.175">U</text>
      <text x="64.318" y="58.559">G</text>
      <text x="53.493" y="68.942">A</text>
      <text x="42.667" y="79.325">U</text>
      <text x="31.698" y="89.557">G</text>
      <text x="20.589" y="99.635">A</text>
      <text x="9.479" y="109.713">G</text>
      <text x="-1.631" y="119.791">C</text>
      <text x="-12.741" y="129.869">U</text>
      <text x="-26.539" y="135.754">U</text>
      <text x="-41.503" y="136.796">G</text>
      <text x="-56.466" y="137.837">G</text>
      <text x="-61.407" y="135.406">U</text>
      <text x="-66.280" y="135.232">U</text>
      <text x="-70.206" y="136.886">U</text>
      <text x="-72.617" y="139.641">A</text>
      <text x="-87.442" y="141.925">G</text>
      <text x="-102.267" y="144.210">U</text>
      <text x="-113.906" y="133.767">A</text>
      <text x="-129.536" y="133.299">U</text>
      <text x="-141.778" y="143.029">U</text>
      <text x="-144.851" y="158.362">U</text>
      <text x="-137.304" y="172.058">A</text>
      <text x="-122.701" y="177.650">C</text>
      <text x="-107.936" y="172.498">A</text>
      <text x="-99.982" y="159.035">G</text>
      <text x="-85.157" y="156.750">C</text>
      <text x="-70.332" y="154.466">U</text>
      <text x="-55.425" y="152.801">C</text>
      <text x="-40.461" y="151.759">C</text>
      <text x="-25.497" y="150.718">A</text>
      <text x="-36.806" y="160.572">U</text>
      <text x="-45.502" y="172.794">A</text>
      <text x="-51.103" y="186.709">C</text>
      <text x="-53.301" y="201.547">A</text>
      <text x="-51.974" y="216.488">U</text>
      <text x="-47.194" y="230.706">G</text>
      <text x="-39.227" y="243.416">A</text>
      <text x="-28.513" y="253.914">G</text>
      <text x="-15.644" y="261.620">G</text>
      <text x="-1.331" y="266.108">U</text>
      <text x="13.634" y="267.130">G</text>
      <text x="28.424" y="264.630">U</text>
      <text x="42.222" y="258.745">U</text>
      <text x="54.264" y="249.802">A</text>
      <text x="63.886" y="238.294">U</text>
      <text x="70.554" y="224.858">C</text>
      <text x="73.901" y="210.236">C</text>
      <text x="73.741" y="195.237">C</text>
      <text x="70.084" y="180.690">U</text>
      <text x="63.131" y="167.398">A</text>
      <text x="53.267" y="156.098">U</text>
      <text x="41.037" y="147.413">G</text>
      <text x="27.117" y="141.824">C</text>
      <text x="12.277" y="139.639">A</text>
      <text x="-2.663" y="140.979">A</text>
      <text x="8.447" y="130.901">G</text>
      <text x="19.557" y="120.823">U</text>
      <text x="30.667" y="110.745">U</text>
      <text x="41.777" y="100.666">C</text>
      <text x="48.946" y="98.472">G</text>
      <text x="53.050" y="90.150">A</text>
      <text x="63.876" y="79.767">U</text>
      <text x="74.701" y="69.384">C</text>
      <text x="85.527" y="59.001">A</text>
      <text x="96.352" y="48.618">G</text>
      <text x="95.650" y="63.601">G</text>
      <text x="106.239" y="74.226">C</text>
      <text x="121.224" y="73.574">G</text>
      <text x="130.851" y="62.070">A</text>
      <text x="128.850" y="47.204">A</text>
      <text x="116.526" y="38.655">A</text>
      <text x="131.351" y="36.370">C</text>
      <text x="146.176" y="34.085">G</text>
      <text x="161.001" y="31.800">G</text>
      <text x="175.826" y="29.516">U</text>
      <text x="190.907" y="35.958">G</text>
      <text x="203.862" y="25.903">A</text>
      <text x="201.364" y="9.695">A</text>
      <text x="185.983" y="4.007">A</text>
      <text x="173.541" y="14.691">G</text>
      <text x="158.716" y="16.975">C</text>
      <text x="143.891" y="19.260">C</text>
      <text x="129.066" y="21.545">G</text>
      <text x="114.241" y="23.830">U</text>
      <text x="111.151" y="26.189">A</text>
      <text x="108.062" y="28.551">G</text>
      <text x="111.776" y="14.018">G</text>
      <text x="115.490" y="-0.515">U</text>
      <text x="119.204" y="-15.048">U</text>
      <text x="122.919" y="-29.581">G</text>
      <text x="126.633" y="-44.113">C</text>
      <text x="130.347" y="-58.646">C</text>
      <text x="134.061" y="-73.179">C</text>
      <text x="148.871" y="-77.249">A</text>
      <text x="159.651" y="-88.189">G</text>
      <text x="163.501" y="-103.058">A</text>
      <text x="159.385" y="-117.855">G</text>
      <text x="148.410" y="-128.600">A</text>
      <text x="133.530" y="-132.403">C</text>
      <text x="118.746" y="-128.241">A</text>
      <text x="108.035" y="-117.233">A</text>
      <text x="104.278" y="-102.341">U</text>
    </g>
  </g>
</svg>
