<?xml version="1.0" encoding="UTF-8" standalone="yes"?>
<svg xmlns="http://www.w3.org/2000/svg" height="452" width="452">
<script type="text/ecmascript">
      <![CDATA[
        var shown = 1;
        function click() {
             var seq = document.getElementById("seq");
             if (shown==1) {
               seq.setAttribute("style", "visibility: hidden");
               shown = 0;
             } else {
               seq.setAttribute("style", "visibility: visible");
               shown = 1;
             }
         }
        ]]>
</script>
  <rect style="stroke: white; fill: white" height="452" x="0" y="0" width="452" onclick="click(evt)" />
  <g transform="scale(0.904617,0.904617) translate(125.453461,119.925720)">
    <polyline style="stroke: black; fill: none; stroke-width: 1.5" id="outline" points="
      76.394,-112.426
      79.234,-93.253
      79.741,-78.262
      80.248,-63.270
      80.754,-48.279
      68.042,-40.516
      60.874,-27.345
      61.264,-12.255
      69.207,0.699
      82.655,7.986
      83.162,22.977
      83.669,37.968
      84.175,52.960
      84.682,67.951
      85.189,82.943
      82.493,87.113
      82.535,93.059
      86.270,98.919
      87.787,113.843
      89.305,128.766
      90.822,143.689
      78.789,154.173
      78.183,172.706
      64.501,178.853
      50.818,185.000
      37.136,191.148
      22.453,185.300
      7.969,191.624
      2.277,206.368
      8.754,220.784
      23.557,226.320
      37.904,219.691
      43.283,204.830
      56.966,198.683
      70.648,192.536
      84.331,186.388
      98.717,190.636
      106.865,203.230
      115.013,215.824
      123.162,228.418
      131.310,241.012
      139.458,253.606
      147.607,266.199
      137.373,277.277
      130.216,290.552
      126.586,305.191
      126.711,320.271
      130.584,334.847
      137.961,348.002
      148.378,358.907
      161.180,366.880
      175.563,371.417
      190.622,372.233
      205.411,369.279
      219.001,362.738
      230.536,353.023
      239.292,340.743
      244.719,326.672
      246.475,311.693
      244.449,296.748
      238.770,282.777
      229.795,270.657
      218.086,261.151
      204.381,254.856
      189.541,252.168
      174.499,253.256
      160.200,258.051
      152.052,245.457
      143.904,232.863
      135.755,220.270
      127.607,207.676
      119.459,195.082
      111.310,182.488
      121.887,158.189
      105.745,142.171
      104.228,127.248
      102.710,112.325
      101.193,97.402
      100.180,82.436
      99.673,67.445
      99.167,52.453
      98.660,37.462
      98.154,22.470
      97.647,7.479
      110.573,-0.699
      117.623,-14.159
      116.993,-29.241
      108.953,-41.899
      95.746,-48.786
      95.239,-63.777
      94.732,-78.768
      94.226,-93.760
    " />
    <g style="stroke: black; stroke-width: 1; fill: none;" id="pairs">
      <line id="2,92" x1="79.23429" y1="-93.25323" x2="94.22573" y2="-93.75986" />
      <line id="3,91" x1="79.74090" y1="-78.26178" x2="94.73235" y2="-78.76840" />
      <line id="4,90" x1="80.24751" y1="-63.27036" x2="95.23895" y2="-63.77695" />
      <line id="5,89" x1="80.75413" y1="-48.27890" x2="95.74557" y2="-48.78552" />
      <line id="10,84" x1="82.65549" y1="7.98558" x2="97.64693" y2="7.47897" />
      <line id="11,83" x1="83.16211" y1="22.97702" x2="98.15355" y2="22.47041" />
      <line id="12,82" x1="83.66872" y1="37.96846" x2="98.66016" y2="37.46185" />
      <line id="13,81" x1="84.17533" y1="52.95992" x2="99.16677" y2="52.45329" />
      <line id="14,80" x1="84.68195" y1="67.95135" x2="99.67339" y2="67.44473" />
      <line id="15,79" x1="85.18855" y1="82.94279" x2="100.18000" y2="82.43619" />
      <line id="18,78" x1="86.26961" y1="98.91948" x2="101.19264" y2="97.40196" />
      <line id="19,77" x1="87.78713" y1="113.84253" x2="102.71017" y2="112.32500" />
      <line id="20,76" x1="89.30466" y1="128.76556" x2="104.22769" y2="127.24805" />
      <line id="21,75" x1="90.82218" y1="143.68860" x2="105.74522" y2="142.17108" />
      <line id="23,36" x1="78.18339" y1="172.70581" x2="84.33069" y2="186.38831" />
      <line id="24,35" x1="64.50089" y1="178.85312" x2="70.64819" y2="192.53561" />
      <line id="25,34" x1="50.81840" y1="185.00043" x2="56.96570" y2="198.68292" />
      <line id="26,33" x1="37.13590" y1="191.14774" x2="43.28321" y2="204.83022" />
      <line id="37,73" x1="98.71658" y1="190.63638" x2="111.31042" y2="182.48807" />
      <line id="38,72" x1="106.86491" y1="203.23022" x2="119.45874" y2="195.08191" />
      <line id="39,71" x1="115.01323" y1="215.82407" x2="127.60707" y2="207.67574" />
      <line id="40,70" x1="123.16155" y1="228.41791" x2="135.75540" y2="220.26958" />
      <line id="41,69" x1="131.30988" y1="241.01175" x2="143.90372" y2="232.86342" />
      <line id="42,68" x1="139.45821" y1="253.60559" x2="152.05205" y2="245.45726" />
      <line id="43,67" x1="147.60654" y1="266.19943" x2="160.20038" y2="258.05109" />
    </g>
    <g style="font-family: SansSerif" transform="translate(-4.6, 4)" id="seq">
      <text x="76.394" y="-112.426">G</text>
      <text x="79.234" y="-93.253">G</text>
      <text x="79.741" y="-78.262">C</text>
      <text x="80.248" y="-63.270">A</text>
      <text x="80.754" y="-48.279">G</text>
      <text x="68.042" y="-40.516">G</text>
      <text x="60.874" y="-27.345">U</text>
      <text x="61.264" y="-12.255">A</text>
      <text x="69.207" y="0.699">C</text>
      <text x="82.655" y="7.986">A</text>
      <text x="83.162" y="22.977">U</text>
      <text x="83.669" y="37.968">A</text>
      <text x="84.175" y="52.960">C</text>
      <text x="84.682" y="67.951">A</text>
      <text x="85.189" y="82.943">G</text>
      <text x="82.493" y="87.113">C</text>
      <text x="82.535" y="93.059">U</text>
      <text x="86.270" y="98.919">G</text>
      <text x="87.787" y="113.843">A</text>
      <text x="89.305" y="128.766">U</text>
      <text x="90.822" y="143.689">G</text>
      <text x="78.789" y="154.173">A</text>
      <text x="78.183" y="172.706">G</text>
      <text x="64.501" y="178.853">U</text>
      <text x="50.818" y="185.000">C</text>
      <text x="37.136" y="191.148">C</text>
      <text x="22.453" y="185.300">C</text>
      <text x="7.969" y="191.624">A</text>
      <text x="2.277" y="206.368">A</text>
      <text x="8.754" y="220.784">A</text>
      <text x="23.557" y="226.320">U</text>
      <text x="37.904" y="219.691">A</text>
      <text x="43.283" y="204.830">G</text>
      <text x="56.966" y="198.683">G</text>
      <text x="70.648" y="192.536">A</text>
      <text x="84.331" y="186.388">C</text>
      <text x="98.717" y="190.636">G</text>
      <text x="106.865" y="203.230">A</text>
      <text x="115.013" y="215.824">A</text>
      <text x="123.162" y="228.418">A</text>
      <text x="131.310" y="241.012">C</text>
      <text x="139.458" y="253.606">G</text>
      <text x="147.607" y="266.199">C</text>
      <text x="137.373" y="277.277">G</text>
      <text x="130.216" y="290.552">A</text>
      <text x="126.586" y="305.191">C</text>
      <text x="126.711" y="320.271">A</text>
      <text x="130.584" y="334.847">C</text>
      <text x="137.961" y="348.002">A</text>
      <text x="148.378" y="358.907">C</text>
      <text x="161.180" y="366.880">A</text>
      <text x="175.563" y="371.417">C</text>
      <text x="190.622" y="372.233">C</text>
      <text x="205.411" y="369.279">A</text>
      <text x="219.001" y="362.738">C</text>
      <text x="230.536" y="353.023">U</text>
      <text x="239.292" y="340.743">A</text>
      <text x="244.719" y="326.672">A</text>
      <text x="246.475" y="311.693">A</text>
      <text x="244.449" y="296.748">C</text>
      <text x="238.770" y="282.777">C</text>
      <text x="229.795" y="270.657">G</text>
      <text x="218.086" y="261.151">U</text>
      <text x="204.381" y="254.856">G</text>
      <text x="189.541" y="252.168">C</text>
      <text x="174.499" y="253.256">A</text>
      <text x="160.200" y="258.051">G</text>
      <text x="152.052" y="245.457">U</text>
      <text x="143.904" y="232.863">G</text>
      <text x="135.755" y="220.270">U</text>
      <text x="127.607" y="207.676">U</text>
      <text x="119.459" y="195.082">U</text>
      <text x="111.310" y="182.488">U</text>
      <text x="121.887" y="158.189">G</text>
      <text x="105.745" y="142.171">C</text>
      <text x="104.228" y="127.248">G</text>
      <text x="102.710" y="112.325">U</text>
      <text x="101.193" y="97.402">C</text>
      <text x="100.180" y="82.436">C</text>
      <text x="99.673" y="67.445">U</text>
      <text x="99.167" y="52.453">G</text>
      <text x="98.660" y="37.462">U</text>
      <text x="98.154" y="22.470">A</text>
      <text x="97.647" y="7.479">U</text>
      <text x="110.573" y="-0.699">U</text>
      <text x="117.623" y="-14.159">C</text>
      <text x="116.993" y="-29.241">C</text>
      <text x="108.953" y="-41.899">A</text>
      <text x="95.746" y="-48.786">C</text>
      <text x="95.239" y="-63.777">U</text>
      <text x="94.732" y="-78.768">G</text>
      <text x="94.226" y="-93.760">C</text>
    </g>
  </g>
</svg>
