<?xml version="1.0" encoding="UTF-8" standalone="yes"?>
<svg xmlns="http://www.w3.org/2000/svg" height="452" width="452">
<script type="text/ecmascript">
      <![CDATA[
        var shown = 1;
        function click() {
             var seq = document.getElementById("seq");
             if (shown==1) {
               seq.setAttribute("style", "visibility: hidden");
               shown = 0;
             } else {
               seq.setAttribute("style", "visibility: visible");
               shown = 1;
             }
         }
        ]]>
</script>
  <rect style="stroke: white; fill: white" height="452" x="0" y="0" width="452" onclick="click(evt)" />
  <g transform="scale(0.851910,0.851910) translate(207.360413,280.271484)">
    <polyline style="stroke: black; fill: none; stroke-width: 1.5" id="outline" points="
      92.500,-272.771
      92.500,-257.771
      92.500,-242.771
      92.500,-227.771
      92.500,-212.771
      92.500,-197.771
      92.500,-182.771
      92.500,-167.771
      81.590,-163.826
      72.348,-156.813
      65.612,-147.367
      61.993,-136.344
      61.818,-124.743
      65.104,-113.616
      71.553,-103.972
      80.579,-96.684
      75.686,-82.504
      70.793,-68.325
      65.900,-54.145
      61.007,-39.966
      56.114,-25.786
      51.221,-11.607
      46.328,2.573
      41.435,16.752
      36.542,30.932
      31.649,45.111
      16.871,42.379
      1.851,41.880
      -13.076,43.625
      -27.576,47.576
      -41.325,53.644
      -54.017,61.693
      -65.366,71.544
      -75.121,82.976
      -83.063,95.735
      -89.014,109.535
      -92.842,124.068
      -94.461,139.009
      -93.835,154.025
      -90.978,168.779
      -85.954,182.943
      -78.875,196.200
      -69.899,208.253
      -59.227,218.834
      -47.096,227.707
      -33.779,234.672
      -19.573,239.574
      -4.794,242.304
      10.226,242.801
      25.153,241.054
      39.652,237.101
      53.400,231.031
      66.091,222.980
      77.439,213.128
      87.192,201.694
      95.132,188.934
      101.081,175.133
      104.907,160.600
      106.524,145.658
      105.896,130.643
      103.037,115.889
      98.011,101.726
      90.930,88.470
      81.952,76.418
      71.278,65.838
      59.147,56.968
      45.828,50.005
      50.722,35.825
      55.615,21.646
      60.508,7.466
      65.401,-6.713
      70.294,-20.893
      75.187,-35.072
      80.080,-49.252
      84.973,-63.431
      89.866,-77.611
      94.759,-91.790
      114.470,-94.252
      130.336,-106.203
      138.143,-124.469
      135.816,-144.196
      148.413,-152.340
      161.009,-160.485
      173.606,-168.629
      186.202,-176.773
      202.599,-177.058
      210.313,-191.529
      201.409,-205.300
      185.047,-204.205
      178.058,-189.370
      165.461,-181.225
      152.865,-173.081
      140.268,-164.937
      127.672,-156.793
      118.423,-163.820
      107.500,-167.771
      107.500,-182.771
      107.500,-197.771
      107.500,-212.771
      107.500,-227.771
      107.500,-242.771
      107.500,-257.771
      107.500,-272.771
    " />
    <g style="stroke: black; stroke-width: 1; fill: none;" id="pairs">
      <line id="1,103" x1="92.50000" y1="-272.77148" x2="107.50000" y2="-272.77148" />
      <line id="2,102" x1="92.50000" y1="-257.77148" x2="107.50000" y2="-257.77148" />
      <line id="3,101" x1="92.50000" y1="-242.77148" x2="107.50000" y2="-242.77148" />
      <line id="4,100" x1="92.50000" y1="-227.77148" x2="107.50000" y2="-227.77148" />
      <line id="5,99" x1="92.50000" y1="-212.77148" x2="107.50000" y2="-212.77148" />
      <line id="6,98" x1="92.50000" y1="-197.77148" x2="107.50000" y2="-197.77148" />
      <line id="7,97" x1="92.50000" y1="-182.77148" x2="107.50000" y2="-182.77148" />
      <line id="8,96" x1="92.50000" y1="-167.77148" x2="107.50000" y2="-167.77148" />
      <line id="16,77" x1="80.57942" y1="-96.68350" x2="94.75892" y2="-91.79046" />
      <line id="17,76" x1="75.68638" y1="-82.50400" x2="89.86588" y2="-77.61096" />
      <line id="18,75" x1="70.79333" y1="-68.32451" x2="84.97283" y2="-63.43146" />
      <line id="19,74" x1="65.90030" y1="-54.14500" x2="80.07980" y2="-49.25196" />
      <line id="20,73" x1="61.00726" y1="-39.96551" x2="75.18675" y2="-35.07247" />
      <line id="21,72" x1="56.11421" y1="-25.78601" x2="70.29371" y2="-20.89297" />
      <line id="22,71" x1="51.22117" y1="-11.60652" x2="65.40067" y2="-6.71347" />
      <line id="23,70" x1="46.32813" y1="2.57298" x2="60.50763" y2="7.46602" />
      <line id="24,69" x1="41.43509" y1="16.75248" x2="55.61458" y2="21.64552" />
      <line id="25,68" x1="36.54205" y1="30.93198" x2="50.72154" y2="35.82502" />
      <line id="26,67" x1="31.64900" y1="45.11147" x2="45.82850" y2="50.00452" />
      <line id="81,94" x1="135.81619" y1="-144.19620" x2="127.67197" y2="-156.79269" />
      <line id="82,93" x1="148.41269" y1="-152.34044" x2="140.26845" y2="-164.93692" />
      <line id="83,92" x1="161.00917" y1="-160.48468" x2="152.86493" y2="-173.08116" />
      <line id="84,91" x1="173.60565" y1="-168.62891" x2="165.46143" y2="-181.22539" />
      <line id="85,90" x1="186.20213" y1="-176.77315" x2="178.05791" y2="-189.36963" />
    </g>
    <g style="font-family: SansSerif" transform="translate(-4.6, 4)" id="seq">
      <text x="92.500" y="-272.771">G</text>
      <text x="92.500" y="-257.771">G</text>
      <text x="92.500" y="-242.771">G</text>
      <text x="92.500" y="-227.771">C</text>
      <text x="92.500" y="-212.771">G</text>
      <text x="92.500" y="-197.771">A</text>
      <text x="92.500" y="-182.771">C</text>
      <text x="92.500" y="-167.771">C</text>
      <text x="81.590" y="-163.826">C</text>
      <text x="72.348" y="-156.813">U</text>
      <text x="65.612" y="-147.367">G</text>
      <text x="61.993" y="-136.344">A</text>
      <text x="61.818" y="-124.743">U</text>
      <text x="65.104" y="-113.616">G</text>
      <text x="71.553" y="-103.972">A</text>
      <text x="80.579" y="-96.684">G</text>
      <text x="75.686" y="-82.504">C</text>
      <text x="70.793" y="-68.325">U</text>
      <text x="65.900" y="-54.145">U</text>
      <text x="61.007" y="-39.966">G</text>
      <text x="56.114" y="-25.786">G</text>
      <text x="51.221" y="-11.607">U</text>
      <text x="46.328" y="2.573">U</text>
      <text x="41.435" y="16.752">G</text>
      <text x="36.542" y="30.932">A</text>
      <text x="31.649" y="45.111">G</text>
      <text x="16.871" y="42.379">U</text>
      <text x="1.851" y="41.880">A</text>
      <text x="-13.076" y="43.625">U</text>
      <text x="-27.576" y="47.576">U</text>
      <text x="-41.325" y="53.644">U</text>
      <text x="-54.017" y="61.693">A</text>
      <text x="-65.366" y="71.544">C</text>
      <text x="-75.121" y="82.976">A</text>
      <text x="-83.063" y="95.735">G</text>
      <text x="-89.014" y="109.535">C</text>
      <text x="-92.842" y="124.068">U</text>
      <text x="-94.461" y="139.009">C</text>
      <text x="-93.835" y="154.025">C</text>
      <text x="-90.978" y="168.779">A</text>
      <text x="-85.954" y="182.943">U</text>
      <text x="-78.875" y="196.200">A</text>
      <text x="-69.899" y="208.253">C</text>
      <text x="-59.227" y="218.834">A</text>
      <text x="-47.096" y="227.707">U</text>
      <text x="-33.779" y="234.672">G</text>
      <text x="-19.573" y="239.574">A</text>
      <text x="-4.794" y="242.304">G</text>
      <text x="10.226" y="242.801">G</text>
      <text x="25.153" y="241.054">U</text>
      <text x="39.652" y="237.101">G</text>
      <text x="53.400" y="231.031">U</text>
      <text x="66.091" y="222.980">U</text>
      <text x="77.439" y="213.128">C</text>
      <text x="87.192" y="201.694">U</text>
      <text x="95.132" y="188.934">C</text>
      <text x="101.081" y="175.133">C</text>
      <text x="104.907" y="160.600">C</text>
      <text x="106.524" y="145.658">U</text>
      <text x="105.896" y="130.643">A</text>
      <text x="103.037" y="115.889">C</text>
      <text x="98.011" y="101.726">G</text>
      <text x="90.930" y="88.470">C</text>
      <text x="81.952" y="76.418">A</text>
      <text x="71.278" y="65.838">A</text>
      <text x="59.147" y="56.968">G</text>
      <text x="45.828" y="50.005">U</text>
      <text x="50.722" y="35.825">U</text>
      <text x="55.615" y="21.646">C</text>
      <text x="60.508" y="7.466">G</text>
      <text x="65.401" y="-6.713">A</text>
      <text x="70.294" y="-20.893">U</text>
      <text x="75.187" y="-35.072">C</text>
      <text x="80.080" y="-49.252">A</text>
      <text x="84.973" y="-63.431">G</text>
      <text x="89.866" y="-77.611">G</text>
      <text x="94.759" y="-91.790">C</text>
      <text x="114.470" y="-94.252">G</text>
      <text x="130.336" y="-106.203">A</text>
      <text x="138.143" y="-124.469">A</text>
      <text x="135.816" y="-144.196">A</text>
      <text x="148.413" y="-152.340">C</text>
      <text x="161.009" y="-160.485">G</text>
      <text x="173.606" y="-168.629">G</text>
      <text x="186.202" y="-176.773">U</text>
      <text x="202.599" y="-177.058">G</text>
      <text x="210.313" y="-191.529">A</text>
      <text x="201.409" y="-205.300">A</text>
      <text x="185.047" y="-204.205">A</text>
      <text x="178.058" y="-189.370">G</text>
      <text x="165.461" y="-181.225">C</text>
      <text x="152.865" y="-173.081">C</text>
      <text x="140.268" y="-164.937">G</text>
      <text x="127.672" y="-156.793">U</text>
      <text x="118.423" y="-163.820">A</text>
      <text x="107.500" y="-167.771">G</text>
      <text x="107.500" y="-182.771">G</text>
      <text x="107.500" y="-197.771">U</text>
      <text x="107.500" y="-212.771">U</text>
      <text x="107.500" y="-227.771">G</text>
      <text x="107.500" y="-242.771">C</text>
      <text x="107.500" y="-257.771">C</text>
      <text x="107.500" y="-272.771">C</text>
    </g>
  </g>
</svg>
