<?xml version="1.0" encoding="UTF-8" standalone="yes"?>
<svg xmlns="http://www.w3.org/2000/svg" height="452" width="452">
<script type="text/ecmascript">
      <![CDATA[
        var shown = 1;
        function click() {
             var seq = document.getElementById("seq");
             if (shown==1) {
               seq.setAttribute("style", "visibility: hidden");
               shown = 0;
             } else {
               seq.setAttribute("style", "visibility: visible");
               shown = 1;
             }
         }
        ]]>
</script>
  <rect style="stroke: white; fill: white" height="452" x="0" y="0" width="452" onclick="click(evt)" />
  <g transform="scale(0.969060,0.969060) translate(236.361755,237.186340)">
    <polyline style="stroke: black; fill: none; stroke-width: 1.5" id="outline" points="
      71.473,-229.686
      71.473,-214.686
      71.473,-199.686
      71.473,-184.686
      71.473,-169.686
      71.473,-154.686
      71.473,-139.686
      71.473,-124.686
      67.010,-110.366
      58.489,-98.021
      49.968,-85.676
      41.447,-73.331
      32.926,-60.987
      24.220,-48.772
      15.330,-36.690
      6.440,-24.608
      -2.450,-12.527
      -11.340,-0.445
      -20.230,11.637
      -29.120,23.719
      -38.191,35.665
      -47.442,47.473
      -66.412,53.952
      -68.695,73.053
      -78.642,84.281
      -88.588,95.508
      -101.742,88.173
      -116.164,83.837
      -131.182,82.703
      -146.092,84.825
      -160.197,90.103
      -172.838,98.290
      -183.423,109.003
      -191.457,121.741
      -196.565,135.909
      -198.506,150.844
      -197.192,165.847
      -192.683,180.216
      -185.189,193.280
      -175.062,204.427
      -162.776,213.137
      -148.904,219.001
      -134.096,221.745
      -119.044,221.242
      -104.452,217.514
      -91.003,210.736
      -79.326,201.225
      -69.967,189.426
      -63.363,175.890
      -59.824,161.252
      -59.515,146.195
      -62.451,131.423
      -68.493,117.628
      -77.361,105.455
      -67.414,94.227
      -57.467,83.000
      -47.048,83.280
      -38.057,77.583
      -33.681,67.638
      -35.634,56.723
      -26.383,44.916
      -19.669,41.535
      -17.038,32.609
      -8.148,20.527
      0.742,8.445
      9.632,-3.637
      18.522,-15.718
      27.412,-27.800
      36.302,-39.882
      42.911,-43.464
      45.271,-52.466
      53.792,-64.810
      62.313,-77.155
      70.834,-89.500
      79.355,-101.845
      85.222,-93.132
      94.288,-88.444
      104.192,-88.681
      112.507,-93.497
      117.330,-101.462
      117.717,-110.465
      130.314,-118.610
      142.910,-126.754
      155.507,-134.898
      168.103,-143.042
      184.500,-143.327
      192.214,-157.798
      183.310,-171.570
      166.948,-170.474
      159.959,-155.639
      147.363,-147.495
      134.766,-139.350
      122.170,-131.206
      109.573,-123.062
      98.866,-127.620
      86.473,-124.686
      86.473,-139.686
      86.473,-154.686
      86.473,-169.686
      86.473,-184.686
      86.473,-199.686
      86.473,-214.686
      86.473,-229.686
    " />
    <g style="stroke: black; stroke-width: 1; fill: none;" id="pairs">
      <line id="1,103" x1="71.47289" y1="-229.68637" x2="86.47289" y2="-229.68637" />
      <line id="2,102" x1="71.47289" y1="-214.68637" x2="86.47289" y2="-214.68637" />
      <line id="3,101" x1="71.47289" y1="-199.68637" x2="86.47289" y2="-199.68637" />
      <line id="4,100" x1="71.47289" y1="-184.68637" x2="86.47289" y2="-184.68637" />
      <line id="5,99" x1="71.47289" y1="-169.68637" x2="86.47289" y2="-169.68637" />
      <line id="6,98" x1="71.47289" y1="-154.68637" x2="86.47289" y2="-154.68637" />
      <line id="7,97" x1="71.47289" y1="-139.68637" x2="86.47289" y2="-139.68637" />
      <line id="8,96" x1="71.47289" y1="-124.68638" x2="86.47289" y2="-124.68638" />
      <line id="9,75" x1="67.01035" y1="-110.36556" x2="79.35510" y2="-101.84459" />
      <line id="10,74" x1="58.48937" y1="-98.02081" x2="70.83413" y2="-89.49983" />
      <line id="11,73" x1="49.96840" y1="-85.67605" x2="62.31316" y2="-77.15508" />
      <line id="12,72" x1="41.44743" y1="-73.33129" x2="53.79219" y2="-64.81032" />
      <line id="13,71" x1="32.92646" y1="-60.98653" x2="45.27122" y2="-52.46556" />
      <line id="14,69" x1="24.22001" y1="-48.77187" x2="36.30178" y2="-39.88194" />
      <line id="15,68" x1="15.33008" y1="-36.69011" x2="27.41185" y2="-27.80017" />
      <line id="16,67" x1="6.44015" y1="-24.60834" x2="18.52191" y2="-15.71841" />
      <line id="17,66" x1="-2.44979" y1="-12.52657" x2="9.63198" y2="-3.63664" />
      <line id="18,65" x1="-11.33972" y1="-0.44481" x2="0.74205" y2="8.44513" />
      <line id="19,64" x1="-20.22965" y1="11.63696" x2="-8.14788" y2="20.52689" />
      <line id="20,63" x1="-29.11959" y1="23.71873" x2="-17.03782" y2="32.60866" />
      <line id="21,61" x1="-38.19098" y1="35.66485" x2="-26.38322" y2="44.91563" />
      <line id="22,60" x1="-47.44176" y1="47.47260" x2="-35.63401" y2="56.72338" />
      <line id="24,56" x1="-68.69478" y1="73.05299" x2="-57.46712" y2="82.99983" />
      <line id="25,55" x1="-78.64162" y1="84.28065" x2="-67.41396" y2="94.22749" />
      <line id="26,54" x1="-88.58846" y1="95.50831" x2="-77.36080" y2="105.45515" />
      <line id="81,94" x1="117.71744" y1="-110.46539" x2="109.57320" y2="-123.06187" />
      <line id="82,93" x1="130.31392" y1="-118.60962" x2="122.16969" y2="-131.20612" />
      <line id="83,92" x1="142.91042" y1="-126.75385" x2="134.76617" y2="-139.35034" />
      <line id="84,91" x1="155.50690" y1="-134.89809" x2="147.36266" y2="-147.49457" />
      <line id="85,90" x1="168.10338" y1="-143.04233" x2="159.95915" y2="-155.63881" />
    </g>
    <g style="font-family: SansSerif" transform="translate(-4.6, 4)" id="seq">
      <text x="71.473" y="-229.686">G</text>
      <text x="71.473" y="-214.686">G</text>
      <text x="71.473" y="-199.686">G</text>
      <text x="71.473" y="-184.686">C</text>
      <text x="71.473" y="-169.686">G</text>
      <text x="71.473" y="-154.686">A</text>
      <text x="71.473" y="-139.686">C</text>
      <text x="71.473" y="-124.686">C</text>
      <text x="67.010" y="-110.366">C</text>
      <text x="58.489" y="-98.021">U</text>
      <text x="49.968" y="-85.676">G</text>
      <text x="41.447" y="-73.331">A</text>
      <text x="32.926" y="-60.987">U</text>
      <text x="24.220" y="-48.772">G</text>
      <text x="15.330" y="-36.690">A</text>
      <text x="6.440" y="-24.608">G</text>
      <text x="-2.450" y="-12.527">C</text>
      <text x="-11.340" y="-0.445">U</text>
      <text x="-20.230" y="11.637">U</text>
      <text x="-29.120" y="23.719">G</text>
      <text x="-38.191" y="35.665">G</text>
      <text x="-47.442" y="47.473">U</text>
      <text x="-66.412" y="53.952">U</text>
      <text x="-68.695" y="73.053">G</text>
      <text x="-78.642" y="84.281">A</text>
      <text x="-88.588" y="95.508">G</text>
      <text x="-101.742" y="88.173">U</text>
      <text x="-116.164" y="83.837">A</text>
      <text x="-131.182" y="82.703">U</text>
      <text x="-146.092" y="84.825">U</text>
      <text x="-160.197" y="90.103">U</text>
      <text x="-172.838" y="98.290">A</text>
      <text x="-183.423" y="109.003">C</text>
      <text x="-191.457" y="121.741">A</text>
      <text x="-196.565" y="135.909">G</text>
      <text x="-198.506" y="150.844">C</text>
      <text x="-197.192" y="165.847">U</text>
      <text x="-192.683" y="180.216">C</text>
      <text x="-185.189" y="193.280">C</text>
      <text x="-175.062" y="204.427">A</text>
      <text x="-162.776" y="213.137">U</text>
      <text x="-148.904" y="219.001">A</text>
      <text x="-134.096" y="221.745">C</text>
      <text x="-119.044" y="221.242">A</text>
      <text x="-104.452" y="217.514">U</text>
      <text x="-91.003" y="210.736">G</text>
      <text x="-79.326" y="201.225">A</text>
      <text x="-69.967" y="189.426">G</text>
      <text x="-63.363" y="175.890">G</text>
      <text x="-59.824" y="161.252">U</text>
      <text x="-59.515" y="146.195">G</text>
      <text x="-62.451" y="131.423">U</text>
      <text x="-68.493" y="117.628">U</text>
      <text x="-77.361" y="105.455">C</text>
      <text x="-67.414" y="94.227">U</text>
      <text x="-57.467" y="83.000">C</text>
      <text x="-47.048" y="83.280">C</text>
      <text x="-38.057" y="77.583">C</text>
      <text x="-33.681" y="67.638">U</text>
      <text x="-35.634" y="56.723">A</text>
      <text x="-26.383" y="44.916">C</text>
      <text x="-19.669" y="41.535">G</text>
      <text x="-17.038" y="32.609">C</text>
      <text x="-8.148" y="20.527">A</text>
      <text x="0.742" y="8.445">A</text>
      <text x="9.632" y="-3.637">G</text>
      <text x="18.522" y="-15.718">U</text>
      <text x="27.412" y="-27.800">U</text>
      <text x="36.302" y="-39.882">C</text>
      <text x="42.911" y="-43.464">G</text>
      <text x="45.271" y="-52.466">A</text>
      <text x="53.792" y="-64.810">U</text>
      <text x="62.313" y="-77.155">C</text>
      <text x="70.834" y="-89.500">A</text>
      <text x="79.355" y="-101.845">G</text>
      <text x="85.222" y="-93.132">G</text>
      <text x="94.288" y="-88.444">C</text>
      <text x="104.192" y="-88.681">G</text>
      <text x="112.507" y="-93.497">A</text>
      <text x="117.330" y="-101.462">A</text>
      <text x="117.717" y="-110.465">A</text>
      <text x="130.314" y="-118.610">C</text>
      <text x="142.910" y="-126.754">G</text>
      <text x="155.507" y="-134.898">G</text>
      <text x="168.103" y="-143.042">U</text>
      <text x="184.500" y="-143.327">G</text>
      <text x="192.214" y="-157.798">A</text>
      <text x="183.310" y="-171.570">A</text>
      <text x="166.948" y="-170.474">A</text>
      <text x="159.959" y="-155.639">G</text>
      <text x="147.363" y="-147.495">C</text>
      <text x="134.766" y="-139.350">C</text>
      <text x="122.170" y="-131.206">G</text>
      <text x="109.573" y="-123.062">U</text>
      <text x="98.866" y="-127.620">A</text>
      <text x="86.473" y="-124.686">G</text>
      <text x="86.473" y="-139.686">G</text>
      <text x="86.473" y="-154.686">U</text>
      <text x="86.473" y="-169.686">U</text>
      <text x="86.473" y="-184.686">G</text>
      <text x="86.473" y="-199.686">C</text>
      <text x="86.473" y="-214.686">C</text>
      <text x="86.473" y="-229.686">C</text>
    </g>
  </g>
</svg>
