<?xml version="1.0" encoding="UTF-8" standalone="yes"?>
<svg xmlns="http://www.w3.org/2000/svg" height="452" width="452">
<script type="text/ecmascript">
      <![CDATA[
        var shown = 1;
        function click() {
             var seq = document.getElementById("seq");
             if (shown==1) {
               seq.setAttribute("style", "visibility: hidden");
               shown = 0;
             } else {
               seq.setAttribute("style", "visibility: visible");
               shown = 1;
             }
         }
        ]]>
</script>
  <rect style="stroke: white; fill: white" height="452" x="0" y="0" width="452" onclick="click(evt)" />
  <g transform="scale(1.149687,1.149687) translate(107.435875,142.850937)">
    <polyline style="stroke: black; fill: none; stroke-width: 1.5" id="outline" points="
      92.500,-135.351
      92.500,-120.351
      92.500,-105.351
      92.500,-90.351
      92.500,-75.351
      92.500,-60.351
      92.500,-45.351
      92.500,-30.351
      81.991,-26.621
      72.989,-20.037
      66.250,-11.152
      62.337,-0.710
      61.578,10.416
      64.037,21.293
      69.507,31.011
      77.530,38.756
      71.323,52.412
      65.116,66.067
      58.909,79.723
      52.702,93.378
      46.495,107.033
      31.766,103.888
      16.706,103.983
      2.019,107.314
      -11.609,113.725
      -23.540,122.915
      -33.216,134.456
      -40.184,147.808
      -44.119,162.345
      -44.836,177.388
      -42.302,192.234
      -36.636,206.188
      -28.102,218.597
      -17.100,228.881
      -4.143,236.559
      10.160,241.272
      25.143,242.799
      40.104,241.070
      54.343,236.164
      67.194,228.312
      78.057,217.880
      86.422,205.357
      91.900,191.328
      94.233,176.450
      93.313,161.418
      89.182,146.935
      82.035,133.679
      72.204,122.269
      60.150,113.241
      66.357,99.585
      72.564,85.930
      78.772,72.274
      84.979,58.619
      91.186,44.963
      109.287,44.849
      125.338,36.483
      135.800,21.711
      138.363,3.792
      152.732,-0.510
      167.102,-4.812
      181.472,-9.114
      195.842,-13.416
      211.666,-9.109
      223.115,-20.850
      218.411,-36.561
      202.394,-40.079
      191.540,-27.786
      177.170,-23.484
      162.800,-19.181
      148.430,-14.879
      134.060,-10.577
      123.012,-23.462
      107.500,-30.351
      107.500,-45.351
      107.500,-60.351
      107.500,-75.351
      107.500,-90.351
      107.500,-105.351
      107.500,-120.351
      107.500,-135.351
    " />
    <g style="stroke: black; stroke-width: 1; fill: none;" id="pairs">
      <line id="1,80" x1="92.50000" y1="-135.35094" x2="107.50000" y2="-135.35094" />
      <line id="2,79" x1="92.50000" y1="-120.35094" x2="107.50000" y2="-120.35094" />
      <line id="3,78" x1="92.50000" y1="-105.35094" x2="107.50000" y2="-105.35094" />
      <line id="4,77" x1="92.50000" y1="-90.35094" x2="107.50000" y2="-90.35094" />
      <line id="5,76" x1="92.50000" y1="-75.35094" x2="107.50000" y2="-75.35094" />
      <line id="6,75" x1="92.50000" y1="-60.35094" x2="107.50000" y2="-60.35094" />
      <line id="7,74" x1="92.50000" y1="-45.35094" x2="107.50000" y2="-45.35094" />
      <line id="8,73" x1="92.50000" y1="-30.35094" x2="107.50000" y2="-30.35094" />
      <line id="16,54" x1="77.53046" y1="38.75618" x2="91.18590" y2="44.96334" />
      <line id="17,53" x1="71.32330" y1="52.41163" x2="84.97874" y2="58.61879" />
      <line id="18,52" x1="65.11613" y1="66.06707" x2="78.77158" y2="72.27423" />
      <line id="19,51" x1="58.90897" y1="79.72252" x2="72.56441" y2="85.92967" />
      <line id="20,50" x1="52.70181" y1="93.37796" x2="66.35725" y2="99.58512" />
      <line id="21,49" x1="46.49465" y1="107.03340" x2="60.15009" y2="113.24056" />
      <line id="58,71" x1="138.36252" y1="3.79244" x2="134.06047" y2="-10.57740" />
      <line id="59,70" x1="152.73236" y1="-0.50961" x2="148.43031" y2="-14.87945" />
      <line id="60,69" x1="167.10220" y1="-4.81165" x2="162.80016" y2="-19.18150" />
      <line id="61,68" x1="181.47205" y1="-9.11370" x2="177.17000" y2="-23.48354" />
      <line id="62,67" x1="195.84189" y1="-13.41575" x2="191.53984" y2="-27.78560" />
    </g>
    <g style="font-family: SansSerif" transform="translate(-4.6, 4)" id="seq">
      <text x="92.500" y="-135.351">G</text>
      <text x="92.500" y="-120.351">G</text>
      <text x="92.500" y="-105.351">G</text>
      <text x="92.500" y="-90.351">C</text>
      <text x="92.500" y="-75.351">G</text>
      <text x="92.500" y="-60.351">A</text>
      <text x="92.500" y="-45.351">C</text>
      <text x="92.500" y="-30.351">C</text>
      <text x="81.991" y="-26.621">C</text>
      <text x="72.989" y="-20.037">U</text>
      <text x="66.250" y="-11.152">G</text>
      <text x="62.337" y="-0.710">A</text>
      <text x="61.578" y="10.416">U</text>
      <text x="64.037" y="21.293">G</text>
      <text x="69.507" y="31.011">A</text>
      <text x="77.530" y="38.756">G</text>
      <text x="71.323" y="52.412">C</text>
      <text x="65.116" y="66.067">U</text>
      <text x="58.909" y="79.723">U</text>
      <text x="52.702" y="93.378">G</text>
      <text x="46.495" y="107.033">A</text>
      <text x="31.766" y="103.888">G</text>
      <text x="16.706" y="103.983">U</text>
      <text x="2.019" y="107.314">U</text>
      <text x="-11.609" y="113.725">U</text>
      <text x="-23.540" y="122.915">A</text>
      <text x="-33.216" y="134.456">G</text>
      <text x="-40.184" y="147.808">C</text>
      <text x="-44.119" y="162.345">U</text>
      <text x="-44.836" y="177.388">C</text>
      <text x="-42.302" y="192.234">G</text>
      <text x="-36.636" y="206.188">U</text>
      <text x="-28.102" y="218.597">C</text>
      <text x="-17.100" y="228.881">A</text>
      <text x="-4.143" y="236.559">C</text>
      <text x="10.160" y="241.272">U</text>
      <text x="25.143" y="242.799">G</text>
      <text x="40.104" y="241.070">U</text>
      <text x="54.343" y="236.164">C</text>
      <text x="67.194" y="228.312">C</text>
      <text x="78.057" y="217.880">A</text>
      <text x="86.422" y="205.357">G</text>
      <text x="91.900" y="191.328">G</text>
      <text x="94.233" y="176.450">U</text>
      <text x="93.313" y="161.418">U</text>
      <text x="89.182" y="146.935">C</text>
      <text x="82.035" y="133.679">A</text>
      <text x="72.204" y="122.269">A</text>
      <text x="60.150" y="113.241">U</text>
      <text x="66.357" y="99.585">C</text>
      <text x="72.564" y="85.930">A</text>
      <text x="78.772" y="72.274">G</text>
      <text x="84.979" y="58.619">G</text>
      <text x="91.186" y="44.963">C</text>
      <text x="109.287" y="44.849">G</text>
      <text x="125.338" y="36.483">A</text>
      <text x="135.800" y="21.711">A</text>
      <text x="138.363" y="3.792">A</text>
      <text x="152.732" y="-0.510">C</text>
      <text x="167.102" y="-4.812">G</text>
      <text x="181.472" y="-9.114">G</text>
      <text x="195.842" y="-13.416">U</text>
      <text x="211.666" y="-9.109">G</text>
      <text x="223.115" y="-20.850">A</text>
      <text x="218.411" y="-36.561">A</text>
      <text x="202.394" y="-40.079">A</text>
      <text x="191.540" y="-27.786">G</text>
      <text x="177.170" y="-23.484">C</text>
      <text x="162.800" y="-19.181">C</text>
      <text x="148.430" y="-14.879">G</text>
      <text x="134.060" y="-10.577">U</text>
      <text x="123.012" y="-23.462">A</text>
      <text x="107.500" y="-30.351">G</text>
      <text x="107.500" y="-45.351">G</text>
      <text x="107.500" y="-60.351">U</text>
      <text x="107.500" y="-75.351">U</text>
      <text x="107.500" y="-90.351">G</text>
      <text x="107.500" y="-105.351">C</text>
      <text x="107.500" y="-120.351">C</text>
      <text x="107.500" y="-135.351">C</text>
    </g>
  </g>
</svg>
